<svg width="24.000000" height="24.000000" viewBox="0 0 24 24" fill="none" xmlns="http://www.w3.org/2000/svg" xmlns:xlink="http://www.w3.org/1999/xlink">
	<defs>
		<clipPath id="clip122_2631">
			<rect id="24 / Navigation / Menu" width="24.000000" height="24.000000" fill="white" fill-opacity="0"/>
		</clipPath>
	</defs>
	<rect id="24 / Navigation / Menu" width="24.000000" height="24.000000" fill="#FFFFFF" fill-opacity="0"/>
	<g clip-path="url(#clip122_2631)">
		<path id="icon" d="M3 5.75C3 5.33 3.33 5 3.75 5L20.25 5C20.66 5 21 5.33 21 5.75C21 6.16 20.66 6.5 20.25 6.5L3.75 6.5C3.33 6.5 3 6.16 3 5.75ZM3 11.75C3 11.33 3.33 11 3.75 11L20.25 11C20.66 11 21 11.33 21 11.75C21 12.16 20.66 12.5 20.25 12.5L3.75 12.5C3.33 12.5 3 12.16 3 11.75ZM3 17.75C3 17.33 3.33 17 3.75 17L20.25 17C20.66 17 21 17.33 21 17.75C21 18.16 20.66 18.5 20.25 18.5L3.75 18.5C3.33 18.5 3 18.16 3 17.75Z" fill="#959595" fill-opacity="1.000000" fill-rule="evenodd"/>
	</g>
</svg>
